<svg width="80" height="80" viewBox="0 0 80 80" fill="none" xmlns="http://www.w3.org/2000/svg">
<path d="M0 25.9459C0 16.864 0 12.323 1.76746 8.85421C3.32217 5.80293 5.80293 3.32217 8.85421 1.76746C12.323 0 16.864 0 25.9459 0H54.0541C63.136 0 67.677 0 71.1458 1.76746C74.1971 3.32217 76.6778 5.80293 78.2325 8.85421C80 12.323 80 16.864 80 25.9459V54.0541C80 63.136 80 67.677 78.2325 71.1458C76.6778 74.1971 74.1971 76.6778 71.1458 78.2325C67.677 80 63.136 80 54.0541 80H25.9459C16.864 80 12.323 80 8.85421 78.2325C5.80293 76.6778 3.32217 74.1971 1.76746 71.1458C0 67.677 0 63.136 0 54.0541V25.9459Z" fill="black"/>
<path d="M56.8257 48.8452C56.5094 51.0596 56.0166 53.2825 54.8007 55.2107C52.9242 58.2363 49.0292 60.498 45.3967 59.0863C44.0431 58.5354 42.8832 57.5003 42.2549 56.1726C41.0024 53.6806 41.5296 50.7518 42.3087 48.2168C42.6852 46.8159 43.2986 45.2471 43.5224 43.9022C43.7806 42.5335 43.6644 41.2703 42.2764 40.6872C39.9695 39.6801 36.6921 39.5983 34.2517 40.5279C33.4103 40.8184 32.8982 39.6306 33.6858 39.2217C36.167 37.9779 38.6159 36.2412 40.2019 34.029C41.3941 32.4904 42.1645 30.0565 40.7076 28.5308C39.2443 26.8458 36.6598 25.9291 34.3206 25.9485C31.2476 25.9786 26.9244 27.1299 25.7322 30.289C25.2652 31.4682 24.8972 32.811 24.6605 34.057C24.3829 35.3482 24.1569 36.8589 23.9912 38.1715C23.535 41.6986 23.3349 45.2622 23.1541 48.8194C22.997 51.6922 23.0035 54.6103 22.6205 57.4594C22.1578 60.399 18.0045 60.356 17.5935 57.4186C17.2406 54.423 17.4278 51.4942 17.5677 48.531C17.7334 45.5764 17.9981 42.6218 18.3876 39.6521C18.9083 35.8474 19.5604 31.7437 21.0517 28.0316C21.7511 26.3638 22.9411 24.9199 24.3614 23.8267C27.6732 21.3132 32.3645 19.5421 36.5393 19.7229C41.5404 19.8628 47.0537 23.7105 46.5501 29.2388C46.2747 32.0923 44.6349 34.6058 42.4765 36.3101C42.1473 36.5619 41.8094 36.7964 41.4694 37.0181C43.914 36.9643 46.1327 38.1393 46.6986 40.9734C47.1183 43.0586 46.9418 45.3526 46.8665 47.3862C46.8342 48.3072 46.8665 49.4047 46.8923 50.2999C46.9612 51.5308 47.0021 52.5078 47.3894 53.4288C47.4281 53.4848 47.4518 53.5214 47.4755 53.5773C47.5078 53.6032 47.525 53.6419 47.5444 53.6742C47.5616 53.6871 47.5745 53.7043 47.5831 53.7215C47.5852 53.7473 47.6089 53.7581 47.6218 53.7775C47.639 53.7925 47.6455 53.8227 47.6627 53.842C48.2308 54.4941 49.2616 54.6469 50.0837 54.3542C50.7981 54.1196 51.3684 53.6548 51.8784 53.091C53.0512 51.817 53.7226 49.947 54.1874 48.2599C54.7491 46.364 55.2053 44.4789 55.201 42.6132C55.1924 42.0515 55.6421 41.5888 56.2038 41.5888C56.731 41.5867 57.1636 41.9956 57.2109 42.5099C57.4003 44.6855 57.1334 46.8116 56.8257 48.8452Z" fill="white"/>
<path d="M63.7679 29.5143C63.7679 30.0049 63.372 30.403 62.8792 30.403C61.3405 30.403 59.888 31.0034 58.7991 32.0966C57.7059 33.1855 57.1055 34.6359 57.1055 36.1767C57.1055 36.6673 56.7095 37.0654 56.2167 37.0654C55.7239 37.0654 55.328 36.6695 55.328 36.1767C55.328 32.994 52.737 30.403 49.5543 30.403C49.0658 30.403 48.6655 30.0071 48.6655 29.5143C48.6655 29.0215 49.0658 28.6255 49.5543 28.6255C52.737 28.6255 55.328 26.0346 55.328 22.8518C55.328 22.3633 55.7282 21.9631 56.2167 21.9631C56.7052 21.9631 57.1055 22.3633 57.1055 22.8518C57.1184 26.0475 59.7072 28.6255 62.8792 28.6255C63.118 28.6255 63.3418 28.718 63.5097 28.8859C63.6754 29.0516 63.7679 29.2775 63.7679 29.5143Z" fill="#FEC312"/>
</svg>
