<svg width="206" height="60" viewBox="0 0 206 60" fill="none" xmlns="http://www.w3.org/2000/svg">
<path d="M36.3059 0.000613551C36.6683 -0.00614759 36.9887 0.0440004 37.2346 0.100223L37.4543 0.156864L37.7473 0.243778C39.2168 0.706101 40.7455 1.55394 42.2795 2.53186C43.9528 3.59854 45.8653 4.9751 48.0041 6.53577C52.3167 9.68263 57.7583 13.7342 64.8078 18.2125C79.044 27.2563 99.0271 38.972 111.709 45.8561C118.057 49.302 122.33 51.3953 125.343 52.6071C127.8 53.5952 129.239 53.919 130.154 53.985C130.161 53.9602 130.172 53.9346 130.18 53.9069C130.451 52.9435 130.569 51.403 130.638 49.1559C130.764 45.012 130.689 38.9335 132.386 33.7682L132.511 33.4244C133.182 31.7483 134.527 30.7212 136.05 30.2584C137.505 29.8163 139.103 29.8797 140.546 30.0924C143.464 30.5226 147.028 31.7769 150.527 33.1725C154.033 34.5711 157.883 36.2855 161.177 37.6617C164.614 39.0979 167.45 40.1687 169.388 40.5621C171.5 40.9909 172.773 40.9996 173.485 40.8717C173.795 40.816 173.933 40.7445 173.972 40.7213C174.006 40.6484 174.133 40.3092 174.077 39.4274C174.019 38.4963 173.785 37.3116 173.407 35.8268C172.659 32.884 171.532 29.4895 170.47 26.1666C169.452 22.98 168.438 19.6997 168.113 17.3424C167.946 16.1395 167.912 14.8674 168.271 13.6998C168.679 12.3714 169.573 11.2827 170.916 10.7155C172.073 10.227 173.27 10.2539 174.169 10.359C175.112 10.4692 176.112 10.7167 177.07 10.9879C180.945 12.086 186.289 14.2321 190.92 16.3649C195.625 18.5319 199.548 20.6739 204.62 23.9274C206.015 24.822 206.42 26.6775 205.526 28.0719C204.631 29.4665 202.775 29.8718 201.38 28.9772C196.526 25.8632 192.846 23.8571 188.41 21.8141C183.9 19.7368 178.877 17.736 175.434 16.7604C174.878 16.603 174.42 16.4909 174.042 16.4147C174.047 16.4494 174.051 16.4854 174.056 16.5221C174.296 18.2597 175.119 21.0014 176.186 24.3405C177.209 27.5436 178.416 31.1791 179.222 34.3473C179.621 35.9176 179.971 37.5429 180.066 39.0504C180.158 40.5223 180.038 42.275 179.114 43.819C178.101 45.5089 176.446 46.4354 174.546 46.777C172.753 47.0992 170.621 46.9349 168.194 46.442C165.592 45.9138 162.233 44.606 158.864 43.1979C155.35 41.7298 151.782 40.1337 148.303 38.7457C144.816 37.3549 141.828 36.3469 139.671 36.0289C138.814 35.9025 138.279 35.9164 137.985 35.9596C136.733 40.0187 136.773 44.836 136.636 49.3385C136.571 51.4733 136.458 53.7489 135.955 55.5338C135.698 56.4468 135.268 57.5045 134.465 58.3795C133.578 59.3451 132.386 59.9212 131.015 59.9879C128.863 60.0926 126.42 59.5081 123.104 58.1744C119.76 56.8295 115.242 54.6006 108.847 51.1295C96.0422 44.1789 75.9403 32.3932 61.5901 23.277C54.5304 18.7922 49.029 14.714 44.7961 11.6217C44.839 11.6909 44.8829 11.7599 44.926 11.8297C49.3984 19.0697 55.197 29.8166 58.4328 43.0905C58.9529 45.2238 59.0538 47.4027 58.1291 49.2408C57.1002 51.2856 55.2029 52.1665 53.4016 52.3844C51.7014 52.59 49.8709 52.2584 48.1799 51.7418C46.4439 51.2115 44.6211 50.4135 42.8489 49.4713C35.8216 45.7353 29.571 41.9883 24.9035 39.4157C22.5014 38.0916 20.4793 37.0531 18.7981 36.3502C17.0985 35.6397 16.0278 35.3967 15.4162 35.3864C15.3571 35.4052 15.1498 35.4839 14.7707 35.7692C14.1884 36.2075 13.4327 36.9615 12.4934 38.1373C10.6168 40.4865 8.35896 44.0656 5.60472 48.8864C4.78273 50.3248 2.95048 50.8244 1.51195 50.0026C0.073459 49.1806 -0.42616 47.3484 0.395737 45.9098C3.1702 41.0537 5.61966 37.129 7.80589 34.3922C8.898 33.0251 10.0131 31.8403 11.1623 30.9752C12.2927 30.1244 13.7157 29.3883 15.3616 29.3854L15.7073 29.3912C17.4453 29.4603 19.3043 30.0591 21.1125 30.8151C23.1016 31.6466 25.3529 32.8119 27.8 34.1608C32.8316 36.9341 38.5878 40.4108 45.6653 44.1735C47.1946 44.9865 48.6562 45.6136 49.9328 46.0035C51.2545 46.4073 52.1652 46.4907 52.6809 46.4283C52.7282 46.4226 52.7669 46.4126 52.7991 46.4069C52.8376 46.1691 52.8691 45.5999 52.6037 44.5114C49.5761 32.0917 44.1262 21.9514 39.8215 14.983C38.7464 13.2426 37.7442 11.7028 36.8664 10.3688C36.0028 9.05628 35.2219 7.88627 34.6448 6.96839C34.3536 6.50525 34.0846 6.0592 33.8655 5.65393C33.668 5.28874 33.4161 4.78853 33.2678 4.25647C33.1947 3.99413 33.0907 3.53197 33.133 2.9762C33.1791 2.37267 33.4222 1.48366 34.2239 0.787723C34.9824 0.129289 35.825 0.00962426 36.3059 0.000613551Z" fill="#FEC312"/>
</svg>
