<svg width="90" height="80" viewBox="0 0 90 80" fill="none" xmlns="http://www.w3.org/2000/svg">
<path d="M3.6341 17.3338H15.4575C17.0513 23.1381 22.3582 27.4335 28.6655 27.4335C34.9729 27.4335 40.2854 23.1495 41.8736 17.3338H86.1323C88.1273 17.3338 89.7494 15.7118 89.7494 13.7167C89.7494 11.7217 88.1273 10.0997 86.1323 10.0997H41.8736C40.2797 4.28409 34.9729 0 28.6655 0C22.3582 0 17.0457 4.28394 15.4575 10.0997H3.65103C1.65598 10.0997 0.0339355 11.7217 0.0339355 13.7167C0.0339355 15.7118 1.65598 17.3338 3.65103 17.3338H3.6341ZM28.6658 7.2229C32.2378 7.2229 35.1484 10.1335 35.1484 13.7055C35.1484 17.2774 32.2378 20.188 28.6658 20.188C25.0939 20.188 22.1833 17.2774 22.1833 13.7055C22.1833 10.1335 25.0939 7.2229 28.6658 7.2229Z" fill="black"/>
<path d="M3.6341 69.9003H15.4575C17.0513 75.7046 22.3582 80 28.6655 80C34.9729 80 40.2854 75.7161 41.8736 69.9003H86.1323C88.1273 69.9003 89.7494 68.2783 89.7494 66.2833C89.7494 64.2882 88.1273 62.6662 86.1323 62.6662H41.8736C40.2797 56.8506 34.9729 52.5665 28.6655 52.5665C22.3582 52.5665 17.0457 56.8504 15.4575 62.6662H3.65103C1.65598 62.6662 0.0339355 64.2882 0.0339355 66.2833C0.0339355 68.2783 1.65598 69.9003 3.65103 69.9003H3.6341ZM28.6658 59.8007C32.2378 59.8007 35.1484 62.7113 35.1484 66.2833C35.1484 69.8552 32.2378 72.7658 28.6658 72.7658C25.0939 72.7658 22.1833 69.8552 22.1833 66.2833C22.1833 62.7113 25.0939 59.8007 28.6658 59.8007Z" fill="black"/>
<path d="M3.63402 43.6084H47.8928C49.4866 49.424 54.7935 53.7081 61.1008 53.7081C67.4081 53.7081 72.7206 49.4241 74.3088 43.6084H86.1153C88.1104 43.6084 89.7324 41.9864 89.7324 39.9913C89.7324 37.9963 88.1104 36.3742 86.1153 36.3742H74.2919C72.6981 30.5699 67.3912 26.2746 61.0839 26.2746C54.7765 26.2746 49.464 30.5585 47.8758 36.3742H3.61709C1.62205 36.3742 0 37.9963 0 39.9913C0 41.9864 1.62205 43.6084 3.61709 43.6084H3.63402ZM61.1067 33.5088C64.6787 33.5088 67.5893 36.4194 67.5893 39.9913C67.5893 43.5633 64.6787 46.4739 61.1067 46.4739C57.5348 46.4739 54.6242 43.5633 54.6242 39.9913C54.6242 36.4194 57.5348 33.5088 61.1067 33.5088Z" fill="black"/>
</svg>
