<svg width="80" height="80" viewBox="0 0 80 80" fill="none" xmlns="http://www.w3.org/2000/svg">
<path d="M54.0541 75.6757V80H25.9459V75.6757H54.0541ZM75.6757 54.0541V25.9459C75.6757 21.3336 75.672 18.1343 75.4688 15.6472C75.2697 13.2106 74.9006 11.8403 74.3792 10.8171C73.2392 8.57981 71.4202 6.76085 69.1829 5.62078C68.1597 5.09944 66.7894 4.73034 64.3528 4.53125C62.4875 4.37884 60.2215 4.33902 57.2593 4.32855L54.0541 4.32432H25.9459C21.3336 4.32432 18.1343 4.32804 15.6472 4.53125C13.2106 4.73034 11.8403 5.09944 10.8171 5.62078C8.57981 6.76085 6.76085 8.57981 5.62078 10.8171C5.09944 11.8403 4.73034 13.2106 4.53125 15.6472C4.37884 17.5125 4.33902 19.7785 4.32855 22.7407L4.32432 25.9459V54.0541C4.32432 58.6664 4.32804 61.8657 4.53125 64.3528C4.73034 66.7894 5.09944 68.1597 5.62078 69.1829C6.76085 71.4202 8.57981 73.2392 10.8171 74.3792C11.8403 74.9006 13.2106 75.2697 15.6472 75.4688C18.1343 75.672 21.3336 75.6757 25.9459 75.6757V80L22.746 79.9968C15.9956 79.9735 12.169 79.7926 9.18285 78.3932L8.85452 78.2327C5.80324 76.678 3.32202 74.1968 1.76731 71.1455C8.37687e-06 67.6767 0 63.1357 0 54.0541V25.9459C0 17.148 3.82758e-05 12.6115 1.60684 9.18285L1.76731 8.85452C3.22485 5.99394 5.49621 3.63401 8.28864 2.06926L8.85452 1.76731C11.8897 0.220951 15.7456 0.0273356 22.746 0.00316723L54.0541 0C63.1357 0 67.6767 8.37687e-06 71.1455 1.76731C74.1968 3.32202 76.678 5.80324 78.2327 8.85452C80 12.3233 80 16.8643 80 25.9459V54.0541C80 63.1357 80 67.6767 78.2327 71.1455L77.9307 71.7114C76.366 74.5038 74.0061 76.7751 71.1455 78.2327L70.8171 78.3932C67.3885 80 62.852 80 54.0541 80V75.6757C58.6664 75.6757 61.8657 75.672 64.3528 75.4688C66.7894 75.2697 68.1597 74.9006 69.1829 74.3792C71.4202 73.2392 73.2392 71.4202 74.3792 69.1829C74.9006 68.1597 75.2697 66.7894 75.4688 64.3528C75.672 61.8657 75.6757 58.6664 75.6757 54.0541Z" fill="#FEC312"/>
<path d="M56.8257 48.8452C56.5094 51.0596 56.0166 53.2825 54.8007 55.2107C52.9242 58.2363 49.0292 60.498 45.3967 59.0863C44.0431 58.5354 42.8832 57.5003 42.2549 56.1726C41.0024 53.6806 41.5296 50.7518 42.3087 48.2168C42.6852 46.8159 43.2986 45.2471 43.5224 43.9022C43.7806 42.5335 43.6644 41.2703 42.2764 40.6872C39.9695 39.6801 36.6921 39.5983 34.2517 40.5279C33.4103 40.8184 32.8982 39.6306 33.6858 39.2217C36.167 37.9779 38.6159 36.2412 40.2019 34.029C41.3941 32.4904 42.1645 30.0565 40.7076 28.5308C39.2443 26.8458 36.6598 25.9291 34.3206 25.9485C31.2476 25.9786 26.9244 27.1299 25.7322 30.289C25.2652 31.4682 24.8972 32.811 24.6605 34.057C24.3829 35.3482 24.1569 36.8589 23.9912 38.1715C23.535 41.6986 23.3349 45.2622 23.1541 48.8194C22.997 51.6922 23.0035 54.6103 22.6205 57.4594C22.1578 60.399 18.0045 60.356 17.5935 57.4186C17.2406 54.423 17.4278 51.4942 17.5677 48.531C17.7334 45.5764 17.9981 42.6218 18.3876 39.6521C18.9083 35.8474 19.5604 31.7437 21.0517 28.0316C21.7511 26.3638 22.9411 24.9199 24.3614 23.8267C27.6732 21.3132 32.3645 19.5421 36.5393 19.7229C41.5404 19.8628 47.0537 23.7105 46.5501 29.2388C46.2747 32.0923 44.6349 34.6058 42.4765 36.3101C42.1473 36.5619 41.8094 36.7964 41.4694 37.0181C43.914 36.9643 46.1327 38.1393 46.6986 40.9734C47.1183 43.0586 46.9418 45.3526 46.8665 47.3862C46.8342 48.3072 46.8665 49.4047 46.8923 50.2999C46.9612 51.5308 47.0021 52.5078 47.3894 53.4288C47.4281 53.4848 47.4518 53.5214 47.4755 53.5773C47.5078 53.6032 47.525 53.6419 47.5444 53.6742C47.5616 53.6871 47.5745 53.7043 47.5831 53.7215C47.5852 53.7473 47.6089 53.7581 47.6218 53.7775C47.639 53.7925 47.6455 53.8227 47.6627 53.842C48.2308 54.4941 49.2616 54.6469 50.0837 54.3542C50.7981 54.1196 51.3684 53.6548 51.8784 53.091C53.0512 51.817 53.7226 49.947 54.1874 48.2599C54.7491 46.364 55.2053 44.4789 55.201 42.6132C55.1924 42.0515 55.6421 41.5888 56.2038 41.5888C56.731 41.5867 57.1636 41.9956 57.2109 42.5099C57.4003 44.6855 57.1334 46.8116 56.8257 48.8452Z" fill="black"/>
<path d="M63.7679 29.5143C63.7679 30.0049 63.372 30.403 62.8792 30.403C61.3405 30.403 59.888 31.0034 58.7991 32.0966C57.7059 33.1855 57.1055 34.6359 57.1055 36.1767C57.1055 36.6673 56.7095 37.0654 56.2167 37.0654C55.7239 37.0654 55.328 36.6695 55.328 36.1767C55.328 32.994 52.737 30.403 49.5543 30.403C49.0658 30.403 48.6655 30.0071 48.6655 29.5143C48.6655 29.0215 49.0658 28.6255 49.5543 28.6255C52.737 28.6255 55.328 26.0346 55.328 22.8518C55.328 22.3633 55.7282 21.9631 56.2167 21.9631C56.7052 21.9631 57.1055 22.3633 57.1055 22.8518C57.1184 26.0475 59.7072 28.6255 62.8792 28.6255C63.118 28.6255 63.3418 28.718 63.5097 28.8859C63.6754 29.0516 63.7679 29.2775 63.7679 29.5143Z" fill="black"/>
</svg>
