<svg width="88" height="80" viewBox="0 0 88 80" fill="none" xmlns="http://www.w3.org/2000/svg">
<path fill-rule="evenodd" clip-rule="evenodd" d="M37.1229 8.20666C37.0596 1.14657 45.4045 -2.62361 50.6486 2.09827L85.3203 33.3826C88.8826 36.5999 88.8917 42.1828 85.3565 45.4182L50.9741 76.8487C45.8295 81.5523 37.5659 77.9997 37.4123 71.0303L37.1049 56.9194C27.9189 57.6535 19.3843 62.1487 13.5799 69.4262L6.18427 78.6976C5.26207 79.8486 3.70703 80.2927 2.3146 79.8033C0.922269 79.3048 -0.00896165 77.9816 6.50469e-05 76.5043L0.0723943 62.4115C0.171848 41.2224 16.5815 23.9302 37.2415 22.153L37.1229 8.20666ZM46.0012 7.27319C45.2508 6.60253 44.0574 7.1463 44.0664 8.1523L44.2111 25.4443C44.2201 26.3778 43.8675 27.275 43.2075 27.9275C42.5565 28.5891 41.6705 28.9607 40.7393 28.9607C22.2501 28.9607 7.09749 43.9507 7.01648 62.4398L6.98936 66.5362L8.1647 65.0771C15.8497 55.4524 27.4858 49.8423 39.7905 49.8423H40.5048C42.3944 49.8423 43.9314 51.3558 43.9766 53.2408L44.3563 70.8774C44.3834 71.8743 45.5588 72.3818 46.2911 71.7112L80.6736 40.2807C81.1799 39.8184 81.1799 39.0209 80.6736 38.5587L46.0012 7.27319Z" fill="white"/>
</svg>
