<svg width="81" height="81" viewBox="0 0 81 81" fill="none" xmlns="http://www.w3.org/2000/svg">
<path d="M44.0244 38.1982C45.6774 38.1982 47.0243 39.5452 47.0244 41.1982C47.0244 42.8568 45.6769 44.1982 44.0244 44.1982H23.001L22.5625 44.2041C13.3779 44.4503 6.00973 51.9628 6 61.1982V69.5527C6.00007 72.5573 8.43736 74.9955 11.4482 75H25.0205C26.6784 75 28.0204 76.3422 28.0205 78C28.0204 79.6578 26.6784 81 25.0205 81H11.4463C5.12571 80.9947 0.00510518 75.8682 0 69.5527V61.1982C0.00505581 55.1038 2.43079 49.2538 6.74316 44.9463L7.15137 44.5469C11.4207 40.4842 17.0908 38.208 22.999 38.1982H44.0244ZM60.6396 38.0068C65.2979 33.3595 72.8404 33.3647 77.4932 38.0176C82.1459 42.6706 82.151 50.2131 77.5039 54.876L52.2598 80.1201C51.6972 80.6827 50.93 80.9989 50.1387 80.999H37.5117C36.7151 80.999 35.953 80.6833 35.3906 80.1211C34.8284 79.5589 34.5118 78.7968 34.5117 78V65.3721C34.5118 64.5806 34.828 63.8136 35.3906 63.251L60.6396 38.0068ZM40.5107 66.6191V74.999H48.8945L67.4775 56.416L59.0928 48.0361L40.5107 66.6191ZM73.0449 42.0537C70.689 40.0175 67.1503 40.0858 64.873 42.2578L64.8721 42.2568L63.3301 43.7998L71.7139 52.1797L73.2607 50.6338C75.5724 48.317 75.575 44.5726 73.2695 42.2578L73.0449 42.0537ZM33.6592 0C40.8246 0.000204222 47.2812 4.31653 50.0244 10.9385C52.6819 17.3492 51.3411 24.7029 46.6504 29.7607L46.1855 30.2432C41.2736 35.1544 33.9718 36.7268 27.5 34.3311L26.876 34.0869C20.2587 31.3433 15.9424 24.8808 15.9424 17.7158L15.9482 17.2588C16.1992 7.69299 24.0286 0.00999653 33.6582 0H33.6592ZM33.6582 6C27.1862 6.00985 21.9473 11.2494 21.9424 17.7158C21.9424 22.455 24.7942 26.7259 29.1729 28.543C33.5508 30.3548 38.5894 29.3529 41.9424 26L42.249 25.6807C45.3498 22.3374 46.2358 17.4722 44.4805 13.2354V13.2344C42.6681 8.85598 38.3969 6.0001 33.6582 6Z" fill="black"/>
</svg>
