<svg width="74" height="74" viewBox="0 0 74 74" fill="none" xmlns="http://www.w3.org/2000/svg">
<rect width="74" height="74" rx="15" fill="white"/>
<path d="M52.5639 45.1818C52.2713 47.2301 51.8155 49.2863 50.6908 51.0698C48.955 53.8685 45.3521 55.9606 41.9921 54.6548C40.74 54.1452 39.6671 53.1878 39.0859 51.9596C37.9274 49.6546 38.4151 46.9454 39.1356 44.6005C39.484 43.3047 40.0513 41.8536 40.2583 40.6095C40.4972 39.3435 40.3897 38.175 39.1058 37.6356C36.9719 36.704 33.9403 36.6284 31.683 37.4883C30.9047 37.757 30.4309 36.6582 31.1595 36.28C33.4546 35.1295 35.7198 33.5231 37.1869 31.4768C38.2897 30.0536 39.0023 27.8023 37.6547 26.391C36.3011 24.8324 33.9104 23.9844 31.7467 24.0023C28.9042 24.0302 24.9052 25.0951 23.8024 28.0173C23.3704 29.1081 23.0301 30.3502 22.8111 31.5027C22.5543 32.6971 22.3453 34.0944 22.192 35.3087C21.77 38.5712 21.5849 41.8675 21.4177 45.1579C21.2724 47.8153 21.2784 50.5145 20.9241 53.15C20.4961 55.8691 16.6543 55.8292 16.2741 53.1121C15.9477 50.3413 16.1208 47.6322 16.2502 44.8912C16.4035 42.1581 16.6483 39.4251 17.0086 36.6782C17.4903 33.1589 18.0935 29.3629 19.4729 25.9292C20.1199 24.3865 21.2206 23.0508 22.5344 22.0396C25.5979 19.7147 29.9373 18.0765 33.799 18.2437C38.425 18.373 43.5248 21.9322 43.059 27.0459C42.8042 29.6853 41.2874 32.0103 39.2909 33.5868C38.9863 33.8197 38.6738 34.0367 38.3593 34.2417C40.6206 34.192 42.6729 35.2788 43.1964 37.9004C43.5845 39.8292 43.4213 41.9511 43.3516 43.8322C43.3218 44.6841 43.3516 45.6993 43.3755 46.5274C43.4392 47.666 43.477 48.5697 43.8353 49.4217C43.8712 49.4734 43.8931 49.5073 43.915 49.559C43.9448 49.5829 43.9607 49.6187 43.9787 49.6486C43.9946 49.6605 44.0065 49.6765 44.0145 49.6924C44.0165 49.7163 44.0384 49.7262 44.0503 49.7441C44.0662 49.7581 44.0722 49.7859 44.0881 49.8038C44.6136 50.407 45.5671 50.5483 46.3275 50.2776C46.9884 50.0606 47.5159 49.6307 47.9876 49.1091C49.0725 47.9307 49.6935 46.2009 50.1235 44.6404C50.643 42.8867 51.065 41.143 51.0611 39.4172C51.0531 38.8976 51.4691 38.4696 51.9887 38.4696C52.4763 38.4677 52.8764 38.8459 52.9202 39.3216C53.0954 41.3341 52.8486 43.3007 52.5639 45.1818Z" fill="black"/>
<path d="M58.9853 27.3008C58.9853 27.7546 58.6191 28.1229 58.1632 28.1229C56.74 28.1229 55.3964 28.6782 54.3891 29.6894C53.3779 30.6966 52.8226 32.0383 52.8226 33.4635C52.8226 33.9174 52.4563 34.2856 52.0005 34.2856C51.5446 34.2856 51.1784 33.9193 51.1784 33.4635C51.1784 30.5195 48.7818 28.1229 45.8377 28.1229C45.3859 28.1229 45.0156 27.7566 45.0156 27.3008C45.0156 26.8449 45.3859 26.4787 45.8377 26.4787C48.7818 26.4787 51.1784 24.082 51.1784 21.138C51.1784 20.6862 51.5486 20.3159 52.0005 20.3159C52.4523 20.3159 52.8226 20.6862 52.8226 21.138C52.8345 24.094 55.2292 26.4787 58.1632 26.4787C58.3842 26.4787 58.5912 26.5643 58.7465 26.7195C58.8997 26.8728 58.9853 27.0818 58.9853 27.3008Z" fill="#FEC312"/>
</svg>
