<svg width="84" height="80" viewBox="0 0 84 80" fill="none" xmlns="http://www.w3.org/2000/svg">
<path d="M38.1866 53.7346C37.4745 53.7346 36.7659 53.4637 36.2206 52.9218L29.683 46.3842C28.5992 45.3004 28.5992 43.5393 29.683 42.4554C30.7668 41.3716 32.528 41.3716 33.6118 42.4554L38.1832 47.0268L51.2199 33.9901C52.3037 32.9063 54.0648 32.9063 55.1487 33.9901C56.2325 35.074 56.2325 36.8351 55.1487 37.9189L40.1493 52.9182C39.6074 53.4601 38.8953 53.7311 38.1833 53.7311L38.1866 53.7346Z" fill="black"/>
<path d="M20.376 79.9991C18.8927 79.9991 17.4199 79.5336 16.1485 78.6096C13.8315 76.9284 12.7512 74.139 13.3244 71.3322L17.2288 52.2618C17.3434 51.6956 17.1524 51.1016 16.7251 50.7125L2.35449 37.5754C0.242478 35.644 -0.52176 32.7504 0.360573 30.027C1.24637 27.3036 3.56337 25.4139 6.40832 25.0908L25.7535 22.9094C26.3266 22.8434 26.8303 22.4786 27.07 21.9506L35.1221 4.2275C36.3066 1.62221 38.8217 0 41.6839 0C44.5462 0 47.0613 1.61874 48.2492 4.2275L56.3013 21.9506C56.541 22.4752 57.0447 22.8434 57.6179 22.9094L76.963 25.0908C79.8115 25.4104 82.1284 27.3036 83.0143 30.027C83.9 32.7504 83.1358 35.644 81.0203 37.5754L66.6497 50.7099C66.2225 51.0989 66.0314 51.693 66.146 52.2592L70.0505 71.3331C70.6271 74.1398 69.5433 76.9258 67.2263 78.6105C64.9093 80.2918 61.9255 80.4585 59.4348 79.0482L42.504 69.4397C42.0038 69.1548 41.3751 69.1548 40.8749 69.4397L23.9441 79.0482C22.8186 79.6839 21.5959 80 20.3766 80L20.376 79.9991ZM41.6909 5.56105C41.3713 5.56105 40.5862 5.65484 40.1868 6.53017L32.1347 24.2533C31.0926 26.5494 28.8868 28.1508 26.3822 28.4356L7.03348 30.6171C6.0817 30.7248 5.74822 31.4438 5.64747 31.746C5.5502 32.0517 5.39736 32.8263 6.10599 33.4759L20.473 46.6104C22.335 48.3126 23.1791 50.9039 22.6719 53.3772L18.7675 72.4476C18.573 73.389 19.1566 73.9275 19.4136 74.115C19.6741 74.3026 20.3654 74.6882 21.1991 74.2157L38.1334 64.6072C40.3289 63.3636 43.0522 63.3636 45.2476 64.6072L62.1819 74.2157C63.0156 74.6882 63.7069 74.3061 63.964 74.115C64.221 73.9274 64.8046 73.389 64.6101 72.4476L60.7056 53.3737C60.1985 50.9039 61.0391 48.309 62.9011 46.6069L77.2717 33.4724C77.9803 32.8263 77.8275 32.0481 77.7267 31.7425C77.6294 31.4368 77.296 30.7212 76.3442 30.6135L56.999 28.4321C54.491 28.1472 52.2852 26.5458 51.243 24.2498L43.191 6.52662C42.795 5.65124 42.0065 5.55749 41.6869 5.55749L41.6909 5.56105Z" fill="black"/>
</svg>
