<svg width="83" height="80" viewBox="0 0 83 80" fill="none" xmlns="http://www.w3.org/2000/svg">
<path d="M33.4429 5.87036C35.9789 -1.9568 47.0211 -1.95678 49.5571 5.87037L53.5461 18.1821C54.6803 21.6825 57.933 24.0525 61.6032 24.0525H74.5121C82.7188 24.0525 86.131 34.5838 79.4916 39.4213L69.0481 47.0303C66.0789 49.1937 64.8365 53.0284 65.9706 56.5288L69.9596 68.8405C72.4957 76.6677 63.5624 83.1764 56.923 78.3389L46.4796 70.7299C43.5103 68.5665 39.4897 68.5665 36.5204 70.7299L26.077 78.339C19.4376 83.1764 10.5043 76.6676 13.0404 68.8405L17.0294 56.5288C18.1635 53.0284 16.9211 49.1937 13.9519 47.0303L3.5084 39.4213C-3.131 34.5838 0.281216 24.0525 8.48797 24.0525H21.3968C25.067 24.0525 28.3197 21.6825 29.4539 18.1821L33.4429 5.87036Z" fill="black"/>
</svg>
