<svg width="83" height="80" viewBox="0 0 83 80" fill="none" xmlns="http://www.w3.org/2000/svg">
<path d="M33.4431 5.8702C35.9792 -1.95674 47.0208 -1.95673 49.5569 5.8702L53.5466 18.1812C54.6099 21.4629 57.5351 23.7512 60.9209 24.0242L61.6035 24.0515H74.513C82.7193 24.052 86.1306 34.5829 79.4916 39.4203L69.048 47.0293C66.0789 49.1926 64.8377 53.0276 65.9715 56.5278L69.9594 68.8407C72.4557 76.5456 63.8385 82.9728 57.2356 78.5572L56.9239 78.3392L46.4804 70.7302C43.5112 68.5668 39.4889 68.5668 36.5196 70.7302L26.0761 78.3392L25.7644 78.5572C19.2662 82.9028 10.8159 76.7463 12.9289 69.2059L13.0406 68.8407L17.0285 56.5278C18.0914 53.2464 17.0674 49.671 14.4887 47.4544L13.952 47.0293L3.50844 39.4203C-3.13064 34.5829 0.280741 24.0521 8.48704 24.0515H21.3965C25.0667 24.0515 28.3192 21.6816 29.4534 18.1812L33.4431 5.8702ZM44.2973 7.60348C43.4231 4.90725 39.5769 4.9073 38.7027 7.60348L34.713 19.9163C32.8296 25.7281 27.4428 29.6329 21.3965 29.6329H8.48704C5.57443 29.6334 4.52141 33.2734 6.74885 34.8963L17.1924 42.5053C22.1033 46.0835 24.1731 52.4451 22.2881 58.2629L18.3001 70.574C17.4654 73.1503 20.444 75.5572 22.8374 73.8134L33.281 66.2044C38.184 62.6326 44.816 62.6326 49.719 66.2044L60.1626 73.8134C62.556 75.5573 65.5346 73.1502 64.6999 70.574L60.7119 58.2629C58.8269 52.4451 60.8967 46.0836 65.8076 42.5053L76.2512 34.8963C78.4787 33.2734 77.4255 29.6334 74.513 29.6329H61.6035C55.5573 29.6329 50.1704 25.7281 48.287 19.9163L44.2973 7.60348Z" fill="#FEC312"/>
</svg>
