<svg width="95" height="80" viewBox="0 0 95 80" fill="none" xmlns="http://www.w3.org/2000/svg">
<path d="M89.6319 46.3658C86.8855 46.3658 84.6398 48.6115 84.6398 51.3578V63.2367C84.6398 66.9796 81.594 70.0253 77.8512 70.0253L16.7727 70.0207C13.0299 70.0207 9.98412 66.9749 9.98412 63.232V51.3532C9.98412 48.6068 7.73841 46.3611 4.99206 46.3611C2.24571 46.3611 0 48.6068 0 51.3532V63.232C0 72.4628 7.53719 80 16.7679 80H77.7997C87.0304 80 94.5676 72.4628 94.5676 63.232V51.3532C94.6238 48.6115 92.3782 46.3658 89.6319 46.3658Z" fill="black"/>
<path d="M47.3144 58.9417C50.0608 58.9417 52.3065 56.696 52.3065 53.9497V17.471L58.646 24.2081C59.6425 25.2561 60.9432 25.8035 62.2906 25.8035C63.5398 25.8035 64.7375 25.3543 65.6825 24.4561C67.6803 22.5613 67.7785 19.4173 65.8837 17.4195L50.9123 1.49834C49.0175 -0.499445 45.5226 -0.499445 43.6278 1.49834L28.6565 17.4195C26.8037 19.3658 26.9021 22.5613 28.9512 24.4561C30.949 26.3508 34.1397 26.2526 35.9878 24.2549L42.3226 17.4709V53.9496C42.3226 56.6959 44.5681 58.9417 47.3144 58.9417Z" fill="black"/>
</svg>
