<svg width="21" height="21" viewBox="0 0 21 21" fill="none" xmlns="http://www.w3.org/2000/svg">
<path d="M4.17801 1.49995C4.17801 0.671527 4.84942 0.000114217 5.67785 0.000114891L19.1778 0.000115228C20.0062 0.000114933 20.6776 0.671528 20.6776 1.49995V14.9999C20.6776 15.8283 20.0062 16.4997 19.1778 16.4997C18.3494 16.4997 17.6779 15.8283 17.6779 14.9999V5.12112L2.56078 20.2383C1.97499 20.8241 1.02524 20.8241 0.439456 20.2383C-0.14633 19.6525 -0.14633 18.7028 0.439456 18.117L15.5566 2.99979L5.67785 2.99979C4.84942 2.99979 4.17801 2.32838 4.17801 1.49995Z" fill="url(#paint0_linear_897_747)"/>
<defs>
<linearGradient id="paint0_linear_897_747" x1="0.439456" y1="20.2383" x2="20.2384" y2="0.439374" gradientUnits="userSpaceOnUse">
<stop stop-color="#FEC312"/>
<stop offset="0.365425" stop-color="#FF4F6D"/>
<stop offset="0.677946" stop-color="#C400D2"/>
<stop offset="1" stop-color="#7C3BED"/>
</linearGradient>
</defs>
</svg>
